<svg width="42" height="42" viewBox="0 0 42 42" fill="none" xmlns="http://www.w3.org/2000/svg">
<g clip-path="url(#clip0_28_545)">
<path fill-rule="evenodd" clip-rule="evenodd" d="M20.541 5.84961C11.7045 5.84961 4.54102 13.0131 4.54102 21.8496C4.54102 30.6861 11.7045 37.8496 20.541 37.8496C29.3776 37.8496 36.541 30.6861 36.541 21.8496C36.541 13.0131 29.3776 5.84961 20.541 5.84961ZM22.2087 22.5524V31.2573H18.6071V22.5527H16.8077V19.553H18.6071V17.752C18.6071 15.3048 19.6231 13.8496 22.5098 13.8496H24.9131V16.8497H23.4109C22.2871 16.8497 22.2128 17.2689 22.2128 18.0513L22.2087 19.5527H24.9301L24.6116 22.5524H22.2087Z" fill="white"/>
</g>
<defs>
<clipPath id="clip0_28_545">
<rect width="32" height="32" fill="white" transform="translate(4.54102 5.84961)"/>
</clipPath>
</defs>
</svg>
