<svg width="42" height="42" viewBox="0 0 42 42" fill="none" xmlns="http://www.w3.org/2000/svg">
<g clip-path="url(#clip0_28_544)">
<path fill-rule="evenodd" clip-rule="evenodd" d="M20.541 5.84961C11.7045 5.84961 4.54102 13.0131 4.54102 21.8496C4.54102 30.6861 11.7045 37.8496 20.541 37.8496C29.3776 37.8496 36.541 30.6861 36.541 21.8496C36.541 13.0131 29.3776 5.84961 20.541 5.84961ZM17.0232 13.3678C17.9334 13.3264 18.2243 13.3163 20.5418 13.3163H20.5391C22.8574 13.3163 23.1471 13.3264 24.0574 13.3678C24.9659 13.4094 25.5863 13.5533 26.1303 13.7643C26.6921 13.9821 27.1667 14.2736 27.6414 14.7483C28.1161 15.2226 28.4077 15.6987 28.6263 16.2599C28.8361 16.8025 28.9801 17.4226 29.0228 18.3311C29.0637 19.2413 29.0743 19.5321 29.0743 21.8497C29.0743 24.1672 29.0637 24.4573 29.0228 25.3676C28.9801 26.2757 28.8361 26.8959 28.6263 27.4387C28.4077 27.9998 28.1161 28.4759 27.6414 28.9502C27.1673 29.4249 26.6919 29.7171 26.1309 29.9351C25.5879 30.1461 24.9671 30.2899 24.0587 30.3315C23.1484 30.373 22.8585 30.3831 20.5407 30.3831C18.2234 30.3831 17.9327 30.373 17.0225 30.3315C16.1142 30.2899 15.4939 30.1461 14.951 29.9351C14.3901 29.7171 13.914 29.4249 13.4399 28.9502C12.9653 28.4759 12.6738 27.9998 12.4557 27.4385C12.2448 26.8959 12.101 26.2759 12.0592 25.3674C12.018 24.4572 12.0077 24.1672 12.0077 21.8497C12.0077 19.5321 12.0183 19.2411 12.0591 18.3309C12.0999 17.4228 12.2439 16.8025 12.4555 16.2597C12.6741 15.6987 12.9657 15.2226 13.4404 14.7483C13.9147 14.2738 14.3908 13.9822 14.9521 13.7643C15.4947 13.5533 16.1147 13.4094 17.0232 13.3678Z" fill="white"/>
<path fill-rule="evenodd" clip-rule="evenodd" d="M19.777 14.8542C19.9256 14.854 20.0855 14.8541 20.2581 14.8541L20.5425 14.8542C22.8209 14.8542 23.091 14.8624 23.9907 14.9033C24.8227 14.9413 25.2743 15.0803 25.5751 15.1971C25.9733 15.3518 26.2572 15.5367 26.5557 15.8354C26.8544 16.1341 27.0393 16.4185 27.1943 16.8167C27.3111 17.1172 27.4503 17.5687 27.4882 18.4007C27.5291 19.3003 27.5379 19.5705 27.5379 21.8478C27.5379 24.1252 27.5291 24.3954 27.4882 25.295C27.4501 26.127 27.3111 26.5786 27.1943 26.879C27.0397 27.2772 26.8544 27.5608 26.5557 27.8593C26.2571 28.158 25.9735 28.3429 25.5751 28.4976C25.2747 28.6149 24.8227 28.7536 23.9907 28.7916C23.0911 28.8325 22.8209 28.8414 20.5425 28.8414C18.2639 28.8414 17.9939 28.8325 17.0943 28.7916C16.2623 28.7532 15.8107 28.6142 15.5097 28.4974C15.1115 28.3427 14.8271 28.1578 14.5284 27.8591C14.2297 27.5604 14.0449 27.2767 13.8898 26.8783C13.773 26.5779 13.6338 26.1263 13.5959 25.2943C13.5551 24.3948 13.5469 24.1245 13.5469 21.8457C13.5469 19.567 13.5551 19.2982 13.5959 18.3986C13.634 17.5666 13.773 17.1151 13.8898 16.8143C14.0445 16.416 14.2297 16.1316 14.5284 15.8329C14.8271 15.5343 15.1115 15.3493 15.5097 15.1943C15.8105 15.077 16.2623 14.9383 17.0943 14.9001C17.8815 14.8645 18.1866 14.8539 19.777 14.8521V14.8542ZM25.0976 16.2711C24.5323 16.2711 24.0735 16.7293 24.0735 17.2948C24.0735 17.8601 24.5323 18.3188 25.0976 18.3188C25.6629 18.3188 26.1216 17.8601 26.1216 17.2948C26.1216 16.7295 25.6629 16.2708 25.0976 16.2708V16.2711ZM16.1603 21.8498C16.1603 19.4298 18.1223 17.4677 20.5423 17.4676C22.9625 17.4676 24.9241 19.4297 24.9241 21.8498C24.9241 24.27 22.9626 26.2312 20.5425 26.2312C18.1224 26.2312 16.1603 24.27 16.1603 21.8498Z" fill="white"/>
<path d="M20.5417 19.0054C22.1126 19.0054 23.3862 20.2788 23.3862 21.8498C23.3862 23.4207 22.1126 24.6943 20.5417 24.6943C18.9707 24.6943 17.6973 23.4207 17.6973 21.8498C17.6973 20.2788 18.9707 19.0054 20.5417 19.0054Z" fill="white"/>
</g>
<defs>
<clipPath id="clip0_28_544">
<rect width="32" height="32" fill="white" transform="translate(4.54102 5.84961)"/>
</clipPath>
</defs>
</svg>
