<svg width="42" height="42" viewBox="0 0 42 42" fill="none" xmlns="http://www.w3.org/2000/svg">
<g clip-path="url(#clip0_28_546)">
<path fill-rule="evenodd" clip-rule="evenodd" d="M4.54102 21.8496C4.54102 30.6861 11.7045 37.8496 20.541 37.8496C29.3776 37.8496 36.541 30.6861 36.541 21.8496C36.541 13.0131 29.3776 5.84961 20.541 5.84961C11.7045 5.84961 4.54102 13.0131 4.54102 21.8496ZM17.6077 29.1829L17.8799 25.1045L17.8797 25.1043L25.299 18.4089C25.6245 18.1199 25.2279 17.979 24.7956 18.2411L15.6392 24.0178L11.6841 22.7834C10.83 22.5219 10.8239 21.9349 11.8759 21.513L27.2879 15.5702C27.9918 15.2506 28.6712 15.7393 28.4025 16.8166L25.7778 29.185C25.5945 30.0639 25.0635 30.2741 24.3277 29.8681L20.3295 26.9142L18.4077 28.7829C18.4016 28.7888 18.3956 28.7947 18.3896 28.8005C18.1747 29.0098 17.9968 29.1829 17.6077 29.1829Z" fill="white"/>
</g>
<defs>
<clipPath id="clip0_28_546">
<rect width="32" height="32" fill="white" transform="translate(4.54102 5.84961)"/>
</clipPath>
</defs>
</svg>
