<svg width="42" height="42" viewBox="0 0 42 42" fill="none" xmlns="http://www.w3.org/2000/svg">
<g clip-path="url(#clip0_28_547)">
<path fill-rule="evenodd" clip-rule="evenodd" d="M4.54102 21.8496C4.54102 30.6861 11.7045 37.8496 20.541 37.8496C29.3776 37.8496 36.541 30.6861 36.541 21.8496C36.541 13.0131 29.3776 5.84961 20.541 5.84961C11.7045 5.84961 4.54102 13.0131 4.54102 21.8496ZM30.5824 21.2373C30.5803 26.4818 26.314 30.7491 21.0684 30.7513H21.0645C19.4721 30.7507 17.9075 30.3512 16.5179 29.5933L11.4743 30.9163L12.8241 25.9861C11.9915 24.5433 11.5534 22.9066 11.5541 21.2297C11.5562 15.9841 15.8242 11.7163 21.0683 11.7163C23.6134 11.7174 26.0022 12.7082 27.7985 14.5065C29.5947 16.3048 30.5835 18.6951 30.5824 21.2373Z" fill="white"/>
<path fill-rule="evenodd" clip-rule="evenodd" d="M13.7584 28.656L16.7513 27.8709L17.04 28.0423C18.2542 28.7628 19.6459 29.144 21.0649 29.1446H21.0681C25.4266 29.1446 28.974 25.5971 28.9758 21.2368C28.9766 19.1238 28.1548 17.137 26.6618 15.6423C25.1688 14.1476 23.1834 13.324 21.0712 13.3232C16.7093 13.3232 13.1619 16.8704 13.1602 21.2304C13.1596 22.7246 13.5776 24.1797 14.3692 25.4387L14.5572 25.7379L13.7584 28.656ZM25.5356 23.2857C25.7014 23.3658 25.8134 23.4199 25.8612 23.4997C25.9206 23.5988 25.9206 24.0748 25.7226 24.6302C25.5244 25.1855 24.5748 25.6923 24.118 25.7605C23.7084 25.8218 23.1902 25.8473 22.6207 25.6663C22.2754 25.5568 21.8326 25.4105 21.2654 25.1656C19.0368 24.2032 17.5307 22.0432 17.2461 21.635C17.2262 21.6064 17.2122 21.5864 17.2044 21.576L17.2025 21.5734C17.0767 21.4056 16.2337 20.2808 16.2337 19.1168C16.2337 18.0218 16.7716 17.4478 17.0192 17.1836C17.0362 17.1656 17.0518 17.1489 17.0658 17.1336C17.2836 16.8956 17.5412 16.8362 17.6997 16.8362C17.8582 16.8362 18.0168 16.8376 18.1553 16.8446C18.1724 16.8454 18.1902 16.8453 18.2086 16.8452C18.3471 16.8444 18.5198 16.8434 18.6902 17.2526C18.7557 17.4102 18.8516 17.6436 18.9528 17.8898C19.1573 18.3879 19.3834 18.9382 19.4231 19.0178C19.4826 19.1368 19.5222 19.2756 19.4429 19.4343C19.431 19.4581 19.42 19.4806 19.4095 19.502C19.35 19.6235 19.3062 19.7129 19.2052 19.8308C19.1655 19.8772 19.1244 19.9272 19.0834 19.9772C19.0016 20.0768 18.9198 20.1764 18.8486 20.2473C18.7296 20.3658 18.6057 20.4945 18.7444 20.7325C18.883 20.9705 19.3602 21.7489 20.0669 22.3793C20.8266 23.0569 21.4868 23.3433 21.8215 23.4885C21.8868 23.5168 21.9398 23.5398 21.9786 23.5592C22.2162 23.6782 22.355 23.6584 22.4936 23.4997C22.6323 23.3411 23.0879 22.8056 23.2464 22.5676C23.4048 22.3297 23.5634 22.3693 23.7812 22.4486C23.9992 22.528 25.1679 23.103 25.4056 23.222C25.452 23.2453 25.4954 23.2662 25.5356 23.2857Z" fill="white"/>
</g>
<defs>
<clipPath id="clip0_28_547">
<rect width="32" height="32" fill="white" transform="translate(4.54102 5.84961)"/>
</clipPath>
</defs>
</svg>
