<svg width="30" height="33" viewBox="0 0 30 33" fill="none" xmlns="http://www.w3.org/2000/svg">
<g clip-path="url(#clip0_28_517)">
<path d="M8.9118 14.9825C10.6372 18.7809 13.4171 21.8813 16.8081 23.8275L19.4442 20.8747C19.7677 20.5123 20.247 20.3915 20.6664 20.5525C22.0084 21.0491 23.4583 21.3176 24.9441 21.3176C25.6031 21.3176 26.1423 21.9216 26.1423 22.6598V27.344C26.1423 28.0822 25.6031 28.6862 24.9441 28.6862C13.6927 28.6862 4.57422 18.4722 4.57422 5.86904C4.57422 5.13084 5.11342 4.52686 5.77245 4.52686H9.96624C10.6253 4.52686 11.1645 5.13084 11.1645 5.86904C11.1645 7.54677 11.4041 9.15739 11.8475 10.6606C11.9793 11.1304 11.8834 11.6539 11.5479 12.0297L8.9118 14.9825Z" fill="#35A972"/>
</g>
<defs>
<clipPath id="clip0_28_517">
<rect width="28.7574" height="32.2124" fill="white" transform="translate(0.980469 0.500488)"/>
</clipPath>
</defs>
</svg>
