<svg width="41" height="40" viewBox="0 0 41 40" fill="none" xmlns="http://www.w3.org/2000/svg">
<circle cx="20.6992" cy="20" r="20" fill="#35A972" fill-opacity="0.45"/>
<path d="M21.2012 18.55C20.684 18.55 20.188 18.7554 19.8223 19.1211C19.4566 19.4868 19.2512 19.9828 19.2512 20.5C19.2512 21.0172 19.4566 21.5132 19.8223 21.8789C20.188 22.2446 20.684 22.45 21.2012 22.45C21.7183 22.45 22.2143 22.2446 22.58 21.8789C22.9457 21.5132 23.1512 21.0172 23.1512 20.5C23.1512 19.9828 22.9457 19.4868 22.58 19.1211C22.2143 18.7554 21.7183 18.55 21.2012 18.55ZM21.2012 17.25C22.0631 17.25 22.8898 17.5924 23.4993 18.2019C24.1088 18.8114 24.4512 19.638 24.4512 20.5C24.4512 21.362 24.1088 22.1886 23.4993 22.7981C22.8898 23.4076 22.0631 23.75 21.2012 23.75C20.3392 23.75 19.5126 23.4076 18.9031 22.7981C18.2936 22.1886 17.9512 21.362 17.9512 20.5C17.9512 19.638 18.2936 18.8114 18.9031 18.2019C19.5126 17.5924 20.3392 17.25 21.2012 17.25ZM25.4262 17.0875C25.4262 17.303 25.3406 17.5097 25.1882 17.662C25.0358 17.8144 24.8292 17.9 24.6137 17.9C24.3982 17.9 24.1915 17.8144 24.0391 17.662C23.8868 17.5097 23.8012 17.303 23.8012 17.0875C23.8012 16.872 23.8868 16.6653 24.0391 16.513C24.1915 16.3606 24.3982 16.275 24.6137 16.275C24.8292 16.275 25.0358 16.3606 25.1882 16.513C25.3406 16.6653 25.4262 16.872 25.4262 17.0875ZM21.2012 15.3C19.5931 15.3 19.3305 15.3046 18.5823 15.3377C18.0727 15.3618 17.7308 15.43 17.4136 15.5535C17.1315 15.6627 16.9281 15.7933 16.7116 16.0104C16.5082 16.207 16.3518 16.447 16.254 16.7124C16.1305 17.0309 16.0623 17.3722 16.0389 17.8812C16.0051 18.5988 16.0012 18.8496 16.0012 20.5C16.0012 22.1081 16.0057 22.3707 16.0389 23.1188C16.0629 23.6278 16.1312 23.9703 16.254 24.2869C16.3645 24.5696 16.4945 24.7731 16.7103 24.9889C16.9294 25.2073 17.1328 25.3379 17.4123 25.4458C17.7334 25.57 18.0753 25.6389 18.5823 25.6623C19.2999 25.6961 19.5508 25.7 21.2012 25.7C22.8093 25.7 23.0719 25.6954 23.82 25.6623C24.3283 25.6382 24.6709 25.57 24.9881 25.4471C25.2695 25.3373 25.4743 25.2066 25.6901 24.9908C25.9091 24.7718 26.0398 24.5683 26.1477 24.2888C26.2712 23.9684 26.3401 23.6258 26.3635 23.1188C26.3973 22.4012 26.4012 22.1503 26.4012 20.5C26.4012 18.8919 26.3966 18.6293 26.3635 17.8812C26.3394 17.3728 26.2712 17.0296 26.1477 16.7124C26.0497 16.4473 25.8936 16.2074 25.6907 16.0104C25.4943 15.8069 25.2543 15.6505 24.9887 15.5528C24.6702 15.4293 24.3283 15.3611 23.82 15.3377C23.1024 15.3039 22.8515 15.3 21.2012 15.3ZM21.2012 14C22.9672 14 23.1876 14.0065 23.8805 14.039C24.5727 14.0715 25.044 14.1801 25.4587 14.3413C25.8877 14.5064 26.2491 14.7299 26.6105 15.0907C26.941 15.4156 27.1967 15.8087 27.3599 16.2425C27.5205 16.6565 27.6297 17.1284 27.6622 17.8207C27.6927 18.5136 27.7012 18.7339 27.7012 20.5C27.7012 22.266 27.6947 22.4864 27.6622 23.1793C27.6297 23.8715 27.5205 24.3428 27.3599 24.7575C27.1972 25.1916 26.9414 25.5847 26.6105 25.9093C26.2854 26.2397 25.8924 26.4954 25.4587 26.6587C25.0446 26.8193 24.5727 26.9285 23.8805 26.961C23.1876 26.9915 22.9672 27 21.2012 27C19.4351 27 19.2148 26.9935 18.5219 26.961C17.8296 26.9285 17.3584 26.8193 16.9437 26.6587C16.5097 26.4959 16.1166 26.2401 15.7919 25.9093C15.4613 25.5844 15.2055 25.1914 15.0424 24.7575C14.8812 24.3434 14.7727 23.8715 14.7402 23.1793C14.7096 22.4864 14.7012 22.266 14.7012 20.5C14.7012 18.7339 14.7077 18.5136 14.7402 17.8207C14.7727 17.1278 14.8812 16.6572 15.0424 16.2425C15.2051 15.8084 15.4609 15.4153 15.7919 15.0907C16.1167 14.76 16.5098 14.5042 16.9437 14.3413C17.3584 14.1801 17.829 14.0715 18.5219 14.039C19.2148 14.0084 19.4351 14 21.2012 14Z" fill="#35A972"/>
</svg>
