<svg width="41" height="40" viewBox="0 0 41 40" fill="none" xmlns="http://www.w3.org/2000/svg">
<circle cx="20.0977" cy="20" r="20" fill="#35A972" fill-opacity="0.45"/>
<path d="M15.9864 15.4451C15.9862 15.8282 15.8338 16.1955 15.5628 16.4662C15.2918 16.7369 14.9244 16.8889 14.5413 16.8887C14.1582 16.8885 13.7909 16.7362 13.5202 16.4652C13.2495 16.1942 13.0975 15.8267 13.0977 15.4436C13.0978 15.0606 13.2502 14.6933 13.5212 14.4225C13.7922 14.1518 14.1597 13.9998 14.5427 14C14.9258 14.0002 15.2931 14.1525 15.5639 14.4236C15.8346 14.6946 15.9866 15.062 15.9864 15.4451ZM16.0297 17.9583H13.141V27H16.0297V17.9583ZM20.5939 17.9583H17.7196V27H20.565V22.2553C20.565 19.6121 24.0098 19.3665 24.0098 22.2553V27H26.8624V21.2731C26.8624 16.8172 21.7638 16.9833 20.565 19.1715L20.5939 17.9583Z" fill="#35A972"/>
</svg>
