<svg width="41" height="40" viewBox="0 0 41 40" fill="none" xmlns="http://www.w3.org/2000/svg">
<circle cx="20.3945" cy="20" r="20" fill="#35A972" fill-opacity="0.45"/>
<path d="M28.3846 15.5432C27.7858 15.8081 27.1508 15.9821 26.5005 16.0594C27.1859 15.6495 27.6989 15.0044 27.9438 14.2443C27.3006 14.6271 26.5955 14.8953 25.8605 15.0404C25.3668 14.5122 24.7124 14.1619 23.9991 14.044C23.2858 13.926 22.5535 14.047 21.916 14.3882C21.2786 14.7294 20.7717 15.2716 20.4742 15.9306C20.1767 16.5895 20.1052 17.3283 20.2709 18.0321C18.9666 17.9667 17.6906 17.6278 16.5257 17.0372C15.3609 16.4467 14.3332 15.6178 13.5095 14.6043C13.218 15.1051 13.0647 15.6744 13.0656 16.2539C13.0656 17.3913 13.6444 18.3961 14.5245 18.9843C14.0037 18.968 13.4943 18.8273 13.0389 18.5741V18.6149C13.0391 19.3724 13.3012 20.1065 13.7808 20.6928C14.2604 21.2791 14.9281 21.6814 15.6705 21.8317C15.187 21.9627 14.6801 21.982 14.188 21.8881C14.3974 22.5402 14.8053 23.1104 15.3549 23.519C15.9044 23.9276 16.568 24.1541 17.2526 24.1668C16.5722 24.7012 15.793 25.0963 14.9598 25.3294C14.1265 25.5625 13.2555 25.6291 12.3965 25.5253C13.896 26.4897 15.6416 27.0017 17.4244 27C23.4587 27 26.7586 22.0011 26.7586 17.6658C26.7586 17.5246 26.7547 17.3818 26.7484 17.2422C27.3907 16.778 27.9451 16.2029 28.3854 15.544L28.3846 15.5432Z" fill="#35A972"/>
</svg>
